<svg xmlns="http://www.w3.org/2000/svg" xmlns:xlink="http://www.w3.org/1999/xlink" width="414" height="896" viewBox="0 0 414 896">
  <defs>
    <filter id="Rectangle_2" x="25.5" y="177.5" width="374" height="477" filterUnits="userSpaceOnUse">
      <feOffset dx="5" dy="5" input="SourceAlpha"/>
      <feGaussianBlur stdDeviation="7.5" result="blur"/>
      <feFlood flood-opacity="0.102"/>
      <feComposite operator="in" in2="blur"/>
      <feComposite in="SourceGraphic"/>
    </filter>
    <filter id="Rectangle_3" x="15.5" y="167.5" width="374" height="477" filterUnits="userSpaceOnUse">
      <feOffset dx="-5" dy="-5" input="SourceAlpha"/>
      <feGaussianBlur stdDeviation="7.5" result="blur-2"/>
      <feFlood flood-color="#fff" flood-opacity="0.796"/>
      <feComposite operator="in" in2="blur-2"/>
      <feComposite in="SourceGraphic"/>
    </filter>
    <filter id="Ellipse_301" x="156" y="357" width="104" height="104" filterUnits="userSpaceOnUse">
      <feOffset dy="6" input="SourceAlpha"/>
      <feGaussianBlur stdDeviation="3" result="blur-3"/>
      <feFlood flood-opacity="0.161"/>
      <feComposite operator="in" in2="blur-3"/>
      <feComposite in="SourceGraphic"/>
    </filter>
    <clipPath id="clip-path">
      <rect width="34" height="34" fill="none"/>
    </clipPath>
    <clipPath id="clip-iPhone_XR_XS_Max_11_23">
      <rect width="414" height="896"/>
    </clipPath>
  </defs>
  <g id="iPhone_XR_XS_Max_11_23" data-name="iPhone XR/XS Max/11 – 23" clip-path="url(#clip-iPhone_XR_XS_Max_11_23)">
    <rect width="414" height="896" fill="#faf5f8"/>
    <g id="Next" transform="translate(216 699)">
      <rect id="Rectangle_150" data-name="Rectangle 150" width="155" height="48" rx="4" fill="#faa47a"/>
      <text id="ADD_TO_KIT" data-name="ADD TO KIT" transform="translate(78 28)" fill="#fff" font-size="10" font-family="Arial-BoldMT, Arial" font-weight="700"><tspan x="-28.518" y="0">ADD TO KIT</tspan></text>
    </g>
    <g id="Path_657" data-name="Path 657" transform="translate(44 699)" fill="none">
      <path d="M4,0H151a4,4,0,0,1,4,4V44a4,4,0,0,1-4,4H4a4,4,0,0,1-4-4V4A4,4,0,0,1,4,0Z" stroke="none"/>
      <path d="M 4 2 C 2.897201538085938 2 2 2.897205352783203 2 4 L 2 44 C 2 45.1027946472168 2.897201538085938 46 4 46 L 132.3208160400391 46 L 151 46 C 152.1027984619141 46 153 45.1027946472168 153 44 L 153 4 C 153 2.897205352783203 152.1027984619141 2 151 2 L 4 2 M 4 0 L 151 0 C 153.2091369628906 0 155 1.790863037109375 155 4 L 155 44 C 155 46.20913696289062 153.2091369628906 48 151 48 C 147.5559997558594 48 141.7393493652344 48 132.3208160400391 48 C 95.57081604003906 48 4 48 4 48 C 1.790863037109375 48 0 46.20913696289062 0 44 L 0 4 C 0 1.790863037109375 1.790863037109375 0 4 0 Z M 151 48 C 154.3316192626953 48 155.4426116943359 48 155.4426116943359 48 L 151 48 Z" stroke="none" fill="#faa47a"/>
    </g>
    <text id="CANCEL" transform="translate(122 727)" fill="#faa47a" font-size="10" font-family="Arial-BoldMT, Arial" font-weight="700"><tspan x="-20.833" y="0">CANCEL</tspan></text>
    <g id="Component_79" data-name="Component 79">
      <rect id="Rectangle_192" data-name="Rectangle 192" width="415" height="93" fill="#faa47a"/>
      <g id="Settings" transform="translate(286.208 36.308)" opacity="0.3">
        <rect id="Rectangle_193" data-name="Rectangle 193" width="19" height="20" transform="translate(-0.208 -0.308)" fill="none"/>
        <path id="Path_104" data-name="Path 104" d="M269,12.006a2.4,2.4,0,1,0-2.4-2.4A2.408,2.408,0,0,0,269,12.006Zm-4.922-7.684a6.771,6.771,0,0,1,2.881-1.561L267.924,0h2.4l.96,2.761a8.383,8.383,0,0,1,2.881,1.561l2.881-.6,1.2,2.161-1.921,2.161a6.846,6.846,0,0,1,.12,1.561c0,.48-.12,1.081-.12,1.561l1.921,2.161-1.2,2.161-2.881-.6a6.771,6.771,0,0,1-2.881,1.561l-.96,2.761h-2.4l-.96-2.761a8.384,8.384,0,0,1-2.881-1.561l-2.881.6L260,13.326l1.921-2.161A6.846,6.846,0,0,1,261.8,9.6c0-.48.12-1.081.12-1.561L260,5.883l1.2-2.161Z" transform="translate(-258.799 0.743)" fill="#fff" fill-rule="evenodd"/>
      </g>
      <text id="_" data-name="􀎟" transform="translate(108.63 53.828)" fill="#fff" font-size="21" font-family="SFProDisplay-Regular, SF Pro Display" letter-spacing="-0.1em"><tspan x="0" y="0">􀎟</tspan></text>
      <g id="Symbol_209_4" data-name="Symbol 209 – 4" transform="translate(198 37)" opacity="0.297">
        <path id="Path_189" data-name="Path 189" d="M5.625,11.25c.563,0,.787.337.338.787L4.275,13.725A6.736,6.736,0,0,0,9,15.75,6.8,6.8,0,0,0,15.75,9.9a1.138,1.138,0,0,1,2.25.225v.225A9,9,0,0,1,9,18a9.408,9.408,0,0,1-6.413-2.588l-1.8,1.8c-.45.45-.788.225-.788-.338V11.813a.531.531,0,0,1,.563-.562Zm6.75-4.5c-.562,0-.788-.338-.338-.787l1.688-1.688A6.736,6.736,0,0,0,9,2.25,6.8,6.8,0,0,0,2.25,8.1,1.069,1.069,0,0,1,1.125,9,1.063,1.063,0,0,1,0,7.875V7.65A9,9,0,0,1,9,0a9.408,9.408,0,0,1,6.412,2.587l1.8-1.8c.45-.45.788-.225.788.338V6.188a.531.531,0,0,1-.562.562Z" fill="#fff" fill-rule="evenodd"/>
      </g>
    </g>
    <g id="Group_83" data-name="Group 83" transform="translate(0 -6.832)">
      <g id="Icon_1" data-name="Icon 1" transform="translate(43 201.832)">
        <g id="Group_85" data-name="Group 85" transform="translate(0 0.074)">
          <g id="Icon_1-2" data-name="Icon 1" transform="translate(0 -0.074)">
            <g transform="matrix(1, 0, 0, 1, -43, -195)" filter="url(#Rectangle_2)">
              <rect id="Rectangle_2-2" data-name="Rectangle 2" width="329" height="432" rx="16" transform="translate(43 195)" fill="#eaebf3"/>
            </g>
            <g transform="matrix(1, 0, 0, 1, -43, -195)" filter="url(#Rectangle_3)">
              <rect id="Rectangle_3-2" data-name="Rectangle 3" width="329" height="432" rx="16" transform="translate(43 195)" fill="#faf5f8"/>
            </g>
          </g>
          <g id="Group_84" data-name="Group 84" transform="translate(122 164.44)">
            <g id="Component_165_7" data-name="Component 165 – 7" transform="translate(0 0.486)">
              <g transform="matrix(1, 0, 0, 1, -165, -360)" filter="url(#Ellipse_301)">
                <circle id="Ellipse_301-2" data-name="Ellipse 301" cx="43" cy="43" r="43" transform="translate(165 360)" fill="#faa47a"/>
              </g>
              <g id="Symbol_14_5" data-name="Symbol 14 – 5" transform="translate(26 26)" clip-path="url(#clip-path)">
                <path id="Union_1" data-name="Union 1" d="M14.874,34V19.125H0v-4.25H14.874V0h4.251V14.875H34v4.25H19.126V34Z" fill="#faf5f8"/>
              </g>
            </g>
          </g>
        </g>
      </g>
    </g>
  </g>
</svg>
