<svg xmlns="http://www.w3.org/2000/svg" xmlns:xlink="http://www.w3.org/1999/xlink" width="414" height="896" viewBox="0 0 414 896">
  <defs>
    <clipPath id="clip-iPhone_XR_XS_Max_11_3">
      <rect width="414" height="896"/>
    </clipPath>
  </defs>
  <g id="iPhone_XR_XS_Max_11_3" data-name="iPhone XR/XS Max/11 – 3" clip-path="url(#clip-iPhone_XR_XS_Max_11_3)">
    <rect width="414" height="896" fill="#faf5f8"/>
    <g id="Next" transform="translate(216 699)">
      <rect id="Rectangle_150" data-name="Rectangle 150" width="155" height="48" rx="4" fill="#faa47a"/>
      <text id="new_account" data-name="new account" transform="translate(78 28)" fill="#fff" font-size="10" font-family="Arial-BoldMT, Arial" font-weight="700"><tspan x="-30.283" y="0">new account</tspan></text>
    </g>
    <path id="Path_657" data-name="Path 657" d="M4,0H151a4,4,0,0,1,4,4V44a4,4,0,0,1-4,4H4a4,4,0,0,1-4-4V4A4,4,0,0,1,4,0Z" transform="translate(44 699)" fill="#b0daae"/>
    <text id="log_in" data-name="log in" transform="translate(122 727)" fill="#faf5f8" font-size="10" font-family="Arial-BoldMT, Arial" font-weight="700"><tspan x="-13.33" y="0">log in</tspan></text>
    <g id="Group_92" data-name="Group 92" transform="translate(-87.776 -54.362)">
      <g id="Group_90" data-name="Group 90" transform="translate(321.212 432.529)">
        <path id="Path_677" data-name="Path 677" d="M250.87,430.812h3.117a20.951,20.951,0,0,0,5.969-.531v26.11l11.143-14.26h9.416l-9.747,12.336,10.411,16.581h-9.947L264.4,459.707l-4.444,5.306v6.036H250.87Z" transform="translate(-250.87 -430.281)" fill="#89a97f"/>
        <path id="Path_678" data-name="Path 678" d="M266.4,435.932h3.119a21.257,21.257,0,0,0,5.967-.531v29.448H266.4Z" transform="translate(-232.068 -424.082)" fill="#89a97f"/>
        <path id="Path_679" data-name="Path 679" d="M277.306,458.647V447.836H272.4v-5.969l.464-.066c4.643-.663,7.163-3.515,7.163-8.224v-1.724h.4a21.276,21.276,0,0,0,5.969-.531v9.551h10.546v6.964H286.393v12.2c0,2.454,1.125,3.714,2.783,3.714s3.186-1.525,4.114-3.581l6.168,3.847c-1.727,4.112-5.772,6.431-10.546,6.431C281.949,470.45,277.306,465.81,277.306,458.647Z" transform="translate(-224.803 -429.022)" fill="#89a97f"/>
      </g>
      <g id="Group_91" data-name="Group 91" transform="translate(192.776 443.716)">
        <path id="Path_680" data-name="Path 680" d="M192.776,450.529c0-8.092,7.362-15.188,16.712-15.188a13.7,13.7,0,0,1,12.2,6.5l-6.166,5.041c-1.724-2.852-3.982-4.311-6.568-4.311-3.911,0-6.763,3.25-6.763,8.025,0,4.709,2.653,7.826,7.227,7.826,3.252,0,5.7-1.461,6.767-4.046l5.967,4.046c-2.52,4.51-7.03,7.161-13.064,7.161C200,465.583,192.776,458.82,192.776,450.529Z" transform="translate(-192.776 -435.341)" fill="#a8d29e"/>
        <path id="Path_681" data-name="Path 681" d="M207.635,457.558c0-6.763,7.03-8.023,12.867-8.753,3.648-.464,5.3-.73,5.3-3.25,0-2.255-1.393-3.449-4.444-3.449-3.115,0-5.37,1.194-6.367,3.383l-5.967-3.515c2.255-4.444,7.428-6.633,13.464-6.633,7.495,0,12.334,3.515,12.334,11.342v18.239h-8.755v-4.048c-1.658,3.119-4.641,4.709-8.885,4.709C211.283,465.583,207.635,462.532,207.635,457.558Zm18.306-3.314V451.06c-.8,1.393-2.056,1.791-4.38,2.122-2.253.265-5.3.729-5.3,3.648,0,1.99,1.26,3.25,3.98,3.25C223.553,460.08,225.941,458.289,225.941,454.244Z" transform="translate(-174.784 -435.341)" fill="#a8d29e"/>
        <path id="Path_682" data-name="Path 682" d="M223.5,436h3.119c3.181,0,4.51-.066,5.967-.531v5.77c1.724-4.245,4.709-5.9,8.092-5.9,3.451,0,6.1,1.724,7.694,5.24l-6.235,5.372c-1.194-2.056-2.321-2.852-4.112-2.852-3.115,0-5.439,2.719-5.439,7.3v14.525H223.5Z" transform="translate(-155.573 -435.341)" fill="#a8d29e"/>
        <path id="Path_683" data-name="Path 683" d="M235.235,450.529a15.6,15.6,0,0,1,15.253-15.188c8.092,0,14.527,6.633,14.527,16.581H244.388c.332,3.847,2.985,6.9,7.694,6.9,3.449,0,5.5-1.459,6.566-3.847l6.232,3.449c-2.186,4.311-6.566,7.161-13.263,7.161C242.2,465.583,235.235,458.886,235.235,450.529Zm9.153-3.316h11.538c-.2-3.316-2.253-5.9-5.569-5.9C246.842,441.31,244.852,443.963,244.388,447.213Z" transform="translate(-141.365 -435.341)" fill="#a8d29e"/>
      </g>
      <path id="Path_680-2" data-name="Path 680" d="M279.341,431.821a3.236,3.236,0,0,0-.084-.73,3.629,3.629,0,0,0-6.884-.345.075.075,0,0,1-.091.044.086.086,0,0,1-.044-.044,3.629,3.629,0,0,0-6.882.345,3.118,3.118,0,0,0-.084.73c0,.057,0,.117,0,.175s0,.137,0,.208c0,3.913,7.037,9.56,7.037,9.56s7.033-5.646,7.033-9.56c0-.071,0-.137,0-.208S279.341,431.879,279.341,431.821Z" transform="translate(87.779 0)" fill="#f79065"/>
    </g>
  </g>
</svg>
