<svg xmlns="http://www.w3.org/2000/svg" xmlns:xlink="http://www.w3.org/1999/xlink" width="414" height="896" viewBox="0 0 414 896">
  <defs>
    <clipPath id="clip-iPhone_XR_XS_Max_11_4">
      <rect width="414" height="896"/>
    </clipPath>
  </defs>
  <g id="iPhone_XR_XS_Max_11_4" data-name="iPhone XR/XS Max/11 – 4" clip-path="url(#clip-iPhone_XR_XS_Max_11_4)">
    <rect width="414" height="896" fill="#faf5f8"/>
    <text id="Welcome_to_Carekit." data-name="Welcome to Carekit." transform="translate(109 546)" fill="#89a97f" font-size="20" font-family="Bilo-Bold, Bilo" font-weight="700"><tspan x="7.74" y="20">Welcome to Carekit.</tspan></text>
    <text id="Your_self_compassion_kit_is_only_a_few_questions_away." data-name="Your self compassion kit is only a few questions away." transform="translate(80 598)" fill="#ad9a9f" font-size="16" font-family="Bilo"><tspan x="1.936" y="16">Your self compassion kit is only a few </tspan><tspan x="72.712" y="36">questions away.</tspan></text>
    <g id="Next" transform="translate(216 699)">
      <rect id="Rectangle_150" data-name="Rectangle 150" width="155" height="48" rx="4" fill="#faa47a"/>
      <text id="begin" transform="translate(78 28)" fill="#fff" font-size="10" font-family="Arial-BoldMT, Arial" font-weight="700"><tspan x="-13.333" y="0">begin</tspan></text>
    </g>
    <g id="Group_90" data-name="Group 90" transform="translate(-106.406 -62.472)">
      <path id="Path_677" data-name="Path 677" d="M223.358,384.9l90.024-45.012L403.4,384.9l-90.022,45.012Z" transform="translate(0 22.883)" fill="#a3553c"/>
      <circle id="Ellipse_306" data-name="Ellipse 306" cx="50.615" cy="50.615" r="50.615" transform="translate(262.767 318.982)" fill="#ffdca2"/>
      <circle id="Ellipse_307" data-name="Ellipse 307" cx="50.615" cy="50.615" r="50.615" transform="translate(262.767 318.982)" fill="#ffdca2"/>
      <path id="Path_678" data-name="Path 678" d="M223.358,361.373l90.024,45.012v90.024L223.358,451.4Z" transform="translate(0 46.407)" fill="#f79065"/>
      <path id="Path_679" data-name="Path 679" d="M266.334,406.385v90.024L356.358,451.4V361.373Z" transform="translate(47.048 46.407)" fill="#a8d29e"/>
      <path id="Path_680" data-name="Path 680" d="M305.4,345.1a11.329,11.329,0,0,0-.3-2.629,13.088,13.088,0,0,0-24.827-1.246.257.257,0,0,1-.484,0,13.088,13.088,0,0,0-24.827,1.246,11.214,11.214,0,0,0-.3,2.629c0,.205,0,.427.017.635-.017.253-.017.49-.017.744,0,14.114,25.374,34.48,25.374,34.48s25.369-20.365,25.369-34.48c0-.253,0-.49-.017-.744C305.4,345.531,305.4,345.313,305.4,345.1Z" transform="translate(34.272 15.187)" fill="#f79065"/>
    </g>
  </g>
</svg>
