<svg id="Layer_1" data-name="Layer 1" xmlns="http://www.w3.org/2000/svg" viewBox="0 0 121.82 134.91"><defs><style>.cls-1{fill:#231f20;}</style></defs><path class="cls-1" d="M47.5,33,66,38,49.47,99.55c-5.15,19.21-16.22,25.09-35.38,18.77l4.75-17.74c6.67,2.19,10.41.55,12.16-6Zm2.57-17A11.48,11.48,0,1,1,72.24,22,11.48,11.48,0,0,1,50.07,16Z" transform="translate(-14.09 -7.54)"/><path class="cls-1" d="M134.61,69.29c4.92,18.35-4.59,36.07-20.72,40.4-8.25,2.21-15,1-20.36-2.6l8.15,30.42-18.47,5-23.1-86.2,18.48-4.95,1.55,5.79C83,51.33,88.22,46.88,96.47,44.67,112.6,40.35,129.7,50.94,134.61,69.29Zm-18.47,4.95C113.67,65,106,60.87,97.46,63.14s-13.1,9.72-10.63,19S97,95.47,105.51,93.19,118.62,83.48,116.14,74.24Z" transform="translate(-14.09 -7.54)"/><path class="cls-1" d="M54.54,126.12l-8.45.62.39-7.14L55,121.32l-3.4-7.95,6.9-1.85L59.57,120l6.38-5.6,3.87,6.06L62.05,124l7.34,4.29L64.78,134,59,127.71,56.89,136l-6.62-2.53Z" transform="translate(-14.09 -7.54)"/></svg>